<svg id="svg" version="1.1" width="768" height="768" xmlns="http://www.w3.org/2000/svg" xmlns:xlink="http://www.w3.org/1999/xlink" ><g id="svgg"><path id="path0" d="M174.015 82.855 C 167.272 84.179,159.723 90.019,156.625 96.308 L 154.948 99.713 154.776 112.096 L 154.605 124.479 119.881 124.485 C 82.134 124.492,82.871 124.441,76.423 127.484 C 67.225 131.825,58.912 141.809,56.809 151.042 C 55.848 155.263,56.070 294.403,57.044 298.144 C 59.985 309.432,69.581 319.079,81.510 322.739 C 86.210 324.181,315.194 324.239,319.792 322.799 C 332.356 318.865,342.672 307.846,344.761 296.128 C 345.924 289.606,345.485 155.529,344.285 150.838 C 341.220 138.851,330.803 128.354,318.898 125.253 C 316.413 124.606,310.235 124.479,281.166 124.479 L 246.406 124.479 246.250 111.836 L 246.094 99.192 244.413 95.780 C 241.223 89.305,234.345 84.247,226.845 82.861 C 223.159 82.179,177.480 82.174,174.015 82.855 M224.774 90.153 C 236.875 92.382,239.063 96.535,239.063 117.280 L 239.063 131.771 257.813 131.771 L 276.563 131.771 276.563 224.219 L 276.563 316.667 200.781 316.667 L 125.000 316.667 125.000 224.219 L 125.000 131.771 143.454 131.771 L 161.908 131.771 162.074 116.797 C 162.233 102.398,162.286 101.730,163.437 99.391 C 165.642 94.915,170.750 91.204,176.182 90.132 C 179.570 89.464,221.129 89.481,224.774 90.153 M175.521 118.229 L 175.521 131.771 200.260 131.771 L 225.000 131.771 225.000 118.229 L 225.000 104.688 200.260 104.688 L 175.521 104.688 175.521 118.229 M110.938 223.958 L 110.938 316.146 98.532 316.146 C 77.454 316.146,68.144 310.680,64.339 296.072 C 63.179 291.619,63.141 157.021,64.298 152.672 C 66.892 142.926,74.549 135.239,84.375 132.514 C 85.912 132.088,90.889 131.848,98.828 131.817 L 110.938 131.771 110.938 223.958 M316.905 132.568 C 324.131 134.450,331.563 140.370,334.779 146.806 C 338.201 153.654,338.071 150.353,337.908 226.042 L 337.760 294.531 336.609 297.548 C 331.090 312.010,323.526 316.129,302.474 316.140 L 290.104 316.146 290.104 223.958 L 290.104 131.771 301.974 131.771 C 310.952 131.771,314.590 131.965,316.905 132.568 " stroke="none" fill="#000000" fill-rule="evenodd"></path></g></svg>